<svg width="232" height="228" viewBox="0 0 232 228" fill="none" xmlns="http://www.w3.org/2000/svg">
<path d="M96.0658 199.412C94.5756 203.257 90.4313 204.334 86.5864 202.844C84.9447 202.207 83.3771 201.252 81.7354 200.616C80.0506 199.963 78.4126 200.471 77.8098 202.026C77.0731 203.927 79.035 205.532 81.0654 206.319C84.2191 207.541 86.5791 206.965 88.5456 204.199L90.9602 209.508C87.3645 211.99 83.4212 212.549 79.1442 210.891C74.5217 209.1 70.9523 205.232 72.8946 200.22L76.394 191.191C77.114 189.333 77.7908 187.459 77.8557 185.497L77.8406 184.894L81.8584 186.452L81.9545 186.588C82.4739 187.684 82.2503 189.287 82.0212 190.391L82.4532 190.558L87.2489 188.441L90.3594 189.647C94.5499 191.271 97.8407 194.832 96.0658 199.412ZM86.0682 198.667C88.1851 199.488 90.1978 199.423 90.968 197.436C91.822 195.233 90.3953 193.785 88.0624 192.881C83.4398 191.09 81.1904 193.945 79.4842 197.706L79.9162 197.873C81.8345 197.027 84.2538 197.964 86.0682 198.667Z" fill="#2180D8"/>
<path d="M70.3177 180.437L69.8663 180.711C68.1264 181.807 66.6221 183.127 65.2204 184.607L45.8203 205.096L42.0185 201.497L51.9256 191.033L51.5891 190.715C49.2243 191.73 46.6519 191.145 44.3978 189.01C39.082 183.977 42.2117 177.369 45.9389 173.433C50.0164 169.127 56.2862 167.087 61.5347 172.057C61.9384 172.439 62.9141 173.363 63.1532 173.717L63.3246 178.792L63.661 179.111C64.592 178.397 65.9142 177.607 67.0932 177.575L67.2897 177.569L70.3177 180.437ZM48.306 186.904C51.6368 190.058 55.0793 187.702 57.7233 184.91C60.5585 181.916 62.4305 178.456 58.8978 175.111C55.9035 172.276 51.753 175.11 49.3638 177.633C46.7516 180.392 45.1098 183.878 48.306 186.904Z" fill="#2180D8"/>
<path d="M44.9004 148.64C48.0862 155.691 44.4773 160.982 38.566 163.653C32.7392 166.285 25.8726 165.829 22.6486 158.693C19.4247 151.557 23.6206 146.103 29.4475 143.47C35.3587 140.799 41.7146 141.588 44.9004 148.64ZM26.9977 156.728C28.8862 160.908 32.8364 160.649 36.4676 159.008C40.141 157.349 42.4399 154.785 40.5514 150.605C38.6628 146.425 35.2193 146.455 31.5459 148.115C27.9147 149.755 25.1091 152.548 26.9977 156.728Z" fill="#2180D8"/>
<path d="M28.0923 130.506L14.2533 131.139L14.012 125.863L27.851 125.23C30.9058 125.09 33.0996 123.367 32.9472 120.034C32.7863 116.516 30.6022 115.41 27.4085 115.556L13.6158 116.187L13.3744 110.911L30.5922 110.123C32.5825 110.032 34.7094 109.889 36.5333 109.202L37.0781 108.945L37.275 113.25L37.1425 113.395C36.297 114.176 34.9738 114.654 33.8714 114.89L33.8926 115.353L37.3754 118.486C37.5523 119.313 37.6283 119.959 37.6664 120.792C37.9649 127.318 33.5539 130.257 28.0923 130.506Z" fill="#2180D8"/>
<path d="M19.5669 95.7527L16.0689 94.6747L16.6632 91.1731L8.07334 88.5258L9.62897 83.4782L18.086 86.0845L20.2421 79.0887L24.3156 80.3441L22.1596 87.34L31.9892 90.3693C33.7161 90.9015 35.8993 91.5259 36.3223 90.1533C36.7727 88.6921 32.1302 87.5523 30.9074 87.2724L36.5533 84.2125L36.7747 84.2808C40.0273 85.5256 42.2333 88.4357 41.0052 92.4207C39.2858 97.9997 33.843 96.4677 30.4336 95.417L20.6039 92.3876L19.5669 95.7527Z" fill="#2180D8"/>
<path d="M49.8028 60.3955C47.0437 57.331 47.952 53.1465 51.0166 50.3874C52.325 49.2093 53.8849 48.2413 55.1934 47.0632C56.5362 45.8541 56.8217 44.1631 55.7057 42.9235C54.3416 41.4085 52.0241 42.4352 50.4057 43.8923C47.8921 46.1554 47.3416 48.5215 48.9229 51.5242L43.0958 51.2843C42.5026 46.9554 43.783 43.1841 47.1918 40.115C50.8762 36.7978 55.9384 35.3573 59.5346 39.3515L66.014 46.5479C67.347 48.0286 68.7145 49.4782 70.4367 50.4215L70.9808 50.6796L67.7786 53.5628L67.6133 53.5869C66.401 53.5562 65.0715 52.6335 64.1897 51.9311L63.8454 52.2411L63.5709 57.4759L61.0918 59.708C57.7518 62.7152 53.089 64.0454 49.8028 60.3955ZM54.9773 51.8089C53.2901 53.328 52.4398 55.1534 53.8659 56.7373C55.447 58.4934 57.3823 57.8731 59.2417 56.199C62.926 52.8819 61.3928 49.5864 58.8059 46.3668L58.4615 46.6768C58.3517 48.7707 56.4235 50.5068 54.9773 51.8089Z" fill="#2180D8"/>
<path d="M78.3533 45.9769L78.3119 45.4502C78.1184 43.4029 77.6197 41.4651 76.9309 39.5463L67.3971 12.9891L72.3249 11.2201L77.1935 24.7822L77.6296 24.6256C77.7906 22.0572 79.4734 20.0255 82.3951 18.9766C89.2852 16.5032 93.7702 22.2773 95.6018 27.3794C97.6056 32.9612 96.5971 39.4768 89.7942 41.9189C89.2709 42.1068 88.0063 42.5608 87.5825 42.6144L82.9757 40.4777L82.5396 40.6342C82.7565 41.7871 82.865 43.3234 82.3619 44.3901L82.278 44.5679L78.3533 45.9769ZM82.5114 23.4146C78.1942 24.9644 78.7433 29.0994 80.0427 32.7188C81.4359 36.5999 83.679 39.8314 88.2578 38.1876C92.139 36.7944 91.4825 31.8118 90.3084 28.5412C89.0247 24.9654 86.6542 21.9274 82.5114 23.4146Z" fill="#2180D8"/>
<path d="M118.197 37.6378C110.467 37.2998 107.373 31.6921 107.656 25.2117C107.935 18.8239 111.441 12.9017 119.264 13.2437C127.086 13.5857 130.061 19.7912 129.782 26.179C129.499 32.6594 125.927 37.9757 118.197 37.6378ZM119.055 18.0114C114.473 17.8111 112.922 21.4535 112.748 25.4343C112.572 29.4614 113.823 32.6697 118.406 32.8701C122.988 33.0704 124.514 29.9835 124.69 25.9564C124.864 21.9756 123.638 18.2118 119.055 18.0114Z" fill="#2180D8"/>
<path d="M141.963 30.8181L147.641 18.1818L152.459 20.3468L146.781 32.9831C145.527 35.7723 146.076 38.5079 149.119 39.8752C152.331 41.3186 154.303 39.8683 155.614 36.9522L161.273 24.3582L166.091 26.5232L159.026 42.2446C158.21 44.0619 157.378 46.0249 157.168 47.9622L157.151 48.5643L153.221 46.7982L153.151 46.6144C152.836 45.5076 153.006 44.1111 153.293 43.0208L152.87 42.8309L148.502 44.5254C147.685 44.3103 147.074 44.0867 146.313 43.7449C140.354 41.0671 139.722 35.805 141.963 30.8181Z" fill="#2180D8"/>
<path d="M176.825 38.888L179.365 36.2526L182.222 38.3627L188.46 31.8909L192.263 35.5564L186.122 41.9281L191.393 47.0084L188.434 50.0775L183.164 44.9972L176.025 52.4031C174.771 53.7041 173.229 55.3709 174.263 56.3676C175.364 57.4287 178.476 53.7997 179.277 52.8347L179.461 59.2538L179.3 59.4206C176.722 61.7618 173.13 62.4178 170.127 59.524C165.924 55.4726 169.747 51.3063 172.222 48.7376L179.361 41.3317L176.825 38.888Z" fill="#2180D8"/>
<path d="M194.74 81.8232C198.719 80.7433 202.044 83.4418 203.124 87.4215C203.585 89.1207 203.745 90.9495 204.206 92.6487C204.679 94.3926 206.06 95.4103 207.669 94.9735C209.637 94.4396 209.766 91.9081 209.196 89.8065C208.31 86.5422 206.447 84.9835 203.054 85.0401L205.897 79.9479C210.028 81.3714 212.816 84.2155 214.017 88.6423C215.315 93.4269 214.317 98.5946 209.13 100.002L199.784 102.538C197.862 103.06 195.951 103.626 194.332 104.738L193.856 105.107L192.728 100.948L192.781 100.79C193.355 99.7219 194.779 98.9516 195.803 98.4815L195.682 98.0343L191.134 95.4278L190.26 92.2082C189.083 87.8708 190 83.1094 194.74 81.8232ZM200.068 90.315C199.474 88.1239 198.228 86.5415 196.171 87.0997C193.891 87.7185 193.571 89.7255 194.226 92.1402C195.525 96.9248 199.158 97.0432 203.198 96.1869L203.077 95.7397C201.257 94.6971 200.578 92.193 200.068 90.315Z" fill="#2180D8"/>
<path d="M194.727 113.808L195.216 114.009C197.13 114.76 199.085 115.189 201.108 115.44L229.11 118.912L228.466 124.108L214.166 122.335L214.109 122.794C216.328 124.097 217.382 126.515 217 129.596C216.099 136.861 208.923 138.259 203.543 137.591C197.658 136.862 192.298 133.022 193.187 125.849C193.256 125.297 193.421 123.964 193.564 123.562L197.55 120.414L197.607 119.954C196.48 119.628 195.06 119.032 194.335 118.101L194.214 117.946L194.727 113.808ZM212.987 127.698C213.552 123.146 209.614 121.77 205.797 121.297C201.705 120.789 197.809 121.333 197.21 126.161C196.703 130.254 201.446 131.916 204.894 132.343C208.665 132.811 212.445 132.066 212.987 127.698Z" fill="#2180D8"/>
<path d="M184.195 153.129C187.983 146.382 194.384 146.151 200.04 149.327C205.614 152.458 209.318 158.258 205.484 165.086C201.65 171.913 194.769 171.768 189.195 168.637C183.539 165.461 180.406 159.875 184.195 153.129ZM201.323 162.749C203.569 158.749 201.018 155.722 197.544 153.771C194.029 151.797 190.602 151.466 188.355 155.466C186.109 159.465 188.176 162.22 191.69 164.194C195.164 166.145 199.077 166.748 201.323 162.749Z" fill="#2180D8"/>
<path d="M179.559 177.416L188.275 188.184L184.169 191.507L175.453 180.739C173.53 178.362 170.841 177.617 168.248 179.716C165.511 181.931 165.915 184.346 167.926 186.831L176.613 197.563L172.507 200.886L161.664 187.489C160.41 185.94 159.033 184.312 157.399 183.251L156.869 182.964L160.219 180.254L160.414 180.274C161.544 180.492 162.714 181.274 163.557 182.022L163.918 181.73L164.376 177.068C164.937 176.435 165.412 175.991 166.06 175.466C171.138 171.356 176.12 173.166 179.559 177.416Z" fill="#2180D8"/>
<path d="M156.629 204.888L157.835 208.344L154.663 209.941L157.625 218.428L152.638 220.168L149.722 211.813L142.81 214.225L141.406 210.201L148.318 207.788L144.929 198.077C144.333 196.371 143.541 194.243 142.185 194.716C140.742 195.22 142.577 199.634 143.076 200.784L137.265 198.053L137.188 197.834C136.262 194.477 137.297 190.975 141.234 189.601C146.746 187.677 148.74 192.968 149.916 196.337L153.305 206.048L156.629 204.888Z" fill="#2180D8"/>
</svg>
