<svg width="77" height="344" viewBox="0 0 77 344" fill="none" xmlns="http://www.w3.org/2000/svg">
<path d="M77 332L53.7 323.6V298L77 289.5V277.5L1.99999 304.6L1.99999 316.9L77 344V332ZM44.5 320.3L16.9 311.3V310.3L44.5 301.3V320.3ZM77 239.257C77 225.257 69.4 215.957 55.9 215.957C48.3 215.957 40.3 219.557 37.9 229.257H36.9C34.1 222.057 28.3 218.857 20.8 218.857C7.3 218.857 1.99999 229.657 1.99999 242.157L1.99999 269.957H77V239.257ZM42.9 239.257C42.9 230.857 48.6 226.257 56.3 226.257C63.9 226.257 67.8 231.157 67.8 239.257V258.557H42.9V239.257ZM11.2 242.157C11.2 234.257 14.7 229.257 22.1 229.257C29.6 229.257 32.7 234.257 32.7 242.157V258.557H11.2L11.2 242.157ZM38.8 208.492C59.5 208.492 77 197.492 77 173.092C77 148.692 59.4 136.692 38.4 136.692C17.6 136.692 0.199999 148.392 0.199999 172.592C0.199999 197.092 17.9 208.492 38.8 208.492ZM39.1 197.092C23.1 197.092 11.3 190.792 11.3 172.592C11.3 154.592 22.8 148.192 38.6 148.192C54.7 148.192 65.9 154.892 65.9 173.092C65.9 190.992 55 197.092 39.1 197.092ZM1.99999 126.695H46.8C64 126.695 77 117.395 77 97.6953C77 77.8953 63.9 68.8953 46.8 68.8953H1.99999L1.99999 80.2953H46.8C58 80.2953 66.8 84.7953 66.8 97.6953C66.8 110.995 58.5 115.295 46.8 115.295H1.99999L1.99999 126.695ZM11.2 63.9219L11.2 37.8219H77V26.5219H11.2L11.2 0.321871H1.99999L1.99999 63.9219H11.2Z" fill="#2180D8"/>
</svg>
