<svg width="513" height="452" viewBox="0 0 513 452" fill="none" xmlns="http://www.w3.org/2000/svg">
<path d="M134.453 376.835C134.041 380.538 129.284 382.015 127.939 385.318C126.644 388.497 125.063 391.147 122.94 393.877C119.37 398.467 119.456 403.392 119.456 408.874C119.456 419.198 131.058 427.891 135.816 436.217C141.835 446.75 150.046 447.73 161.72 447.73C166.593 447.73 171.277 448.462 175.354 446.064C180.368 443.115 184.458 436.237 187.321 431.37C195.527 417.42 198.625 384.435 184.898 372.669C176.879 365.796 165.013 367.291 154.903 367.291C150.199 367.291 144.539 366.143 140.967 369.715C137.838 372.844 135.468 374.964 131.726 376.835" stroke="#2180D8" stroke-width="8" stroke-linecap="round"/>
<path d="M438.486 285.489C432.388 286.166 424.866 298.625 420.762 303.213C417.158 307.24 416.672 313.112 416.672 318.21C416.672 326.44 415.719 334.354 422.807 340.024C426.391 342.891 427.882 348.334 432.426 350.931C435.706 352.805 438.907 354.817 442.576 355.021C447.873 355.315 465.617 362.082 469.162 355.703C471.508 351.479 472.562 347.009 474.691 342.751C476.728 338.677 476.669 333.463 478.705 329.798C483.938 320.379 484.519 305.012 476.963 297.456C470.788 291.281 463.36 284.467 455.604 280.035C445.656 274.351 438.94 288.215 428.942 288.215" stroke="#2180D8" stroke-width="8" stroke-linecap="round"/>
<path d="M483.477 323.663C491.132 323.663 501.656 314.574 508.018 311.393" stroke="#2180D8" stroke-width="8" stroke-linecap="round"/>
<path d="M508.018 311.393C508.018 298.289 506.329 285.403 504.003 272.612C502.554 264.643 499.574 256.947 498.55 248.753C497.654 241.589 497.235 234.582 495.672 227.545C493.996 220.005 495.808 213.92 494.384 205.731C492.474 194.747 489.715 183.85 485.143 173.692C482.348 167.48 484.436 159.148 481.811 153.241C479.879 148.894 479.387 140.266 479.387 135.517C479.387 131.327 476.66 119.057 476.66 123.247" stroke="#2180D8" stroke-width="8" stroke-linecap="round"/>
<path d="M197.168 406.829C201.412 406.829 205.671 404.524 209.438 402.739C215.592 399.824 222.424 398.612 228.526 395.619C238.152 390.897 248.641 388.191 258.52 383.652C275.936 375.65 296.192 370.124 315.1 367.215C331.16 364.745 346.844 358.917 362.818 356.46C373.254 354.854 383.388 353.657 394.176 353.657C400.211 353.657 410.034 353.568 415.308 350.931" stroke="#2180D8" stroke-width="8" stroke-linecap="round"/>
<path d="M475.297 109.613V120.52" stroke="#2180D8" stroke-width="8" stroke-linecap="round"/>
<path d="M472.57 109.613C465.559 109.613 459.75 111.165 453.18 113.703C447.522 115.889 436.214 118.056 431.669 121.883C422.517 129.59 407.131 128.697 398.266 137.562C381.299 154.53 356.935 157.674 336.232 166.875C330.117 169.593 323.274 169.604 317.145 172.328C309.321 175.806 300.929 178.663 292.907 181.872C286.035 184.621 278.856 186.771 272.154 189.749C269.999 190.707 268.945 188.543 266.7 188.992C262.182 189.895 257.351 190.647 252.991 192.173C245.999 194.62 237.895 195.669 231.252 198.99C227.585 200.824 221.739 203.228 217.619 203.686C211.107 204.41 206.654 210.44 200.576 211.791C194.719 213.092 184.09 220.047 176.036 220.047C164.889 220.047 166.306 230.397 163.386 238.831C158.086 254.144 156.267 266.984 156.267 283.444C156.267 294.692 160.069 315.165 151.873 323.36C147.093 328.141 141.394 334.074 137.179 339.342C135.939 340.893 124.02 350.931 124.909 350.931" stroke="#2180D8" stroke-width="8" stroke-linecap="round"/>
<path d="M469.843 108.25C458.936 108.25 448.029 108.25 437.122 108.25C429.867 108.25 421.04 109.568 413.945 107.947C400.053 104.771 383.124 105.518 370.317 98.403C365.968 95.9867 362.396 91.8891 359.107 91.8891C351.677 91.8891 344.726 89.1623 337.596 89.1623C330.182 89.1623 320.821 85.5468 314.418 82.3455" stroke="#2180D8" stroke-width="8" stroke-linecap="round"/>
<path d="M314.418 82.3455C300.747 82.3455 291.336 88.9307 279.652 95.2218C269.175 100.864 256.594 103.376 246.325 109.537C239.773 113.469 231.566 116.407 224.133 118.096C212.343 120.776 202.013 127.338 190.654 131.124C172.354 137.224 155.506 147.729 136.498 151.953C131.955 152.963 123.986 156.979 120.516 159.755C116.594 162.892 107.95 163.638 103.095 166.875" stroke="#2180D8" stroke-width="8" stroke-linecap="round"/>
<path d="M190.351 211.866C190.351 208.28 192.446 195.506 189.594 195.506C179.679 195.506 171.833 193.894 163.084 189.749C158.945 187.789 154.718 185.157 150.51 183.538C148.277 182.679 141.331 180.245 139.906 178.464C137.045 174.887 117.702 175.055 113.32 175.055C99.5812 175.055 90.9347 161.421 77.8724 161.421C74.6912 161.421 71.51 161.421 68.3288 161.421C62.6718 161.421 64.7024 161.806 64.9204 165.512C65.3182 172.275 64.9204 179.185 64.9204 185.962" stroke="#2180D8" stroke-width="8" stroke-linecap="round"/>
<path d="M64.9204 187.325C64.9204 193.291 76.1476 198.254 80.5992 201.717C87.1432 206.806 98.9202 211.407 107.185 211.866C117.801 212.456 128.701 222.773 139.224 222.773C142.854 222.773 145.763 225.295 149.45 225.5C153.511 225.726 157.652 225.5 161.72 225.5" stroke="#2180D8" stroke-width="8" stroke-linecap="round"/>
<path d="M56.7402 200.959C56.7402 213.72 55.3769 226.308 55.3769 239.134C55.3769 250.111 60.9381 263.091 56.4373 273.218C52.3962 282.311 53.4455 288.802 43.1065 293.972C39.0853 295.982 34.5131 298.078 30.1544 299.047C26.21 299.923 22.4245 303.213 18.5657 303.213" stroke="#2180D8" stroke-width="8" stroke-linecap="round"/>
<path d="M18.5657 308.666C26.9958 308.666 38.4163 320.512 45 325.632C50.3913 329.826 54.7639 334.609 60.7546 337.979C66.2598 341.075 73.5062 349.19 79.9176 349.567C87.6236 350.021 96.916 354.978 105.064 356.46C110.756 357.495 114.926 361.545 119.456 364.564" stroke="#2180D8" stroke-width="8" stroke-linecap="round"/>
<path d="M10.3853 310.029C10.3853 313.82 8.85536 317.562 7.35558 320.936C6.4444 322.986 7.20308 327.3 5.99221 328.814C2.66424 332.974 4.9318 344.897 4.9318 350.249C4.9318 355.604 7.9382 361.392 9.09768 366.609C10.2109 371.619 10.9201 376.541 13.1121 380.925" stroke="#2180D8" stroke-width="8" stroke-linecap="round"/>
<path d="M13.1121 380.925C13.8263 387.353 37.8441 400.012 43.788 400.012C51.6758 400.012 65.2491 402.854 72.4947 406.148C80.3764 409.73 89.6396 410.706 97.6414 414.707C103.285 417.528 113.183 421.826 119.455 421.826" stroke="#2180D8" stroke-width="8" stroke-linecap="round"/>
<path d="M26.7458 402.739C26.7458 413.612 32.9223 421.826 43.7881 421.826C52.3878 421.826 63.557 424.905 63.557 413.646" stroke="#2180D8" stroke-width="8" stroke-linecap="round"/>
<path d="M71.7373 222.773C71.7373 235.079 73.1007 247.165 73.1007 259.584C73.1007 263.609 74.4641 266.812 74.4641 271.173C74.4641 279.244 75.0506 277.677 81.281 280.792C89.9959 285.15 102.75 286.03 110.215 292.002C112.221 293.608 120.074 295.7 122.864 296.32C128.039 297.47 131.726 301.407 131.726 294.35C131.726 286.197 128.549 276.949 130.438 268.446C131.488 263.722 132.797 259.108 133.089 254.131C133.156 252.995 136.154 250.221 133.089 250.041C130.372 249.881 127.628 250.184 124.909 250.041C117.393 249.645 112.059 240.595 105.14 239.058C100.801 238.094 97.4458 233.409 92.8697 232.393C87.3565 231.167 70.1015 230.408 67.6472 225.5" stroke="#2180D8" stroke-width="8" stroke-linecap="round"/>
<path d="M90.8245 203.686C90.8245 193.543 92.1878 183.988 92.1878 173.692" stroke="#2180D8" stroke-width="8" stroke-linecap="round"/>
<path d="M149.45 187.325V220.046" stroke="#2180D8" stroke-width="8" stroke-linecap="round"/>
<path d="M30.8359 134.154C38.0297 134.873 42.7959 142.179 48.5598 145.061" stroke="#2180D8" stroke-width="8" stroke-linecap="round"/>
<path d="M49.9233 120.52C49.9233 130.621 60.8008 138.185 64.9205 146.424" stroke="#2180D8" stroke-width="8" stroke-linecap="round"/>
<path d="M78.5541 113.703C78.5541 124.199 75.8274 133.552 75.8274 143.697" stroke="#2180D8" stroke-width="8" stroke-linecap="round"/>
<path d="M175.354 166.875C175.354 170.751 178.246 174.187 179.444 177.782" stroke="#2180D8" stroke-width="8" stroke-linecap="round"/>
<path d="M197.168 160.058C197.168 167.421 194.441 174.591 194.441 181.872" stroke="#2180D8" stroke-width="8" stroke-linecap="round"/>
<path d="M216.255 188.689C211.816 188.689 206.587 190.239 203.985 194.142" stroke="#2180D8" stroke-width="8" stroke-linecap="round"/>
<path d="M156.267 408.193C156.267 415.027 154.597 422.467 158.993 427.962C162.085 431.826 164.447 418.787 164.447 417.055C164.447 412.205 164.411 406.845 157.63 409.859C153.129 411.859 145.36 411.414 145.36 417.736" stroke="#2180D8" stroke-width="8" stroke-linecap="round"/>
<path d="M445.303 318.21C445.303 323.309 443.403 331.58 448.635 334.57C454.294 337.804 454.092 329.109 455.907 325.027C460.082 315.633 445.303 313.308 445.303 325.027" stroke="#2180D8" stroke-width="8" stroke-linecap="round"/>
<path d="M182.171 245.951C182.171 260.948 182.171 275.945 182.171 290.942C182.171 295.238 182.337 294.788 185.579 292.987C188.169 291.548 192.844 291.942 195.805 291.245C202.284 289.721 209.015 289.161 214.892 286.549C217.819 285.248 221.554 284.811 223.678 282.08C226.355 278.638 221.449 268.48 220.345 265.038C217.412 255.891 215.447 245.845 214.892 236.407C214.517 230.033 189.005 246.848 186.261 248.677" stroke="#2180D8" stroke-width="8" stroke-linecap="round"/>
<path d="M330.779 196.869C330.779 200.935 330.54 205.082 330.779 209.14C330.979 212.538 333.506 216.959 333.506 220.728C333.506 225.069 335.725 227.856 329.416 228.227C326.275 228.412 321.982 230.362 319.872 232.999C315.637 238.293 306.993 238.716 303.209 242.921C299.991 246.496 303.645 267.112 309.268 262.614C312.187 260.279 317.701 260.948 321.235 260.948C325.107 260.948 328.449 258.221 332.824 258.221C337.005 258.221 341.501 255.656 345.473 254.434C349.789 253.106 348.886 261.365 350.548 264.356C351.25 265.619 354.413 288.08 356.38 286.549C362.69 281.642 371.404 280.158 378.497 277.005C387.702 272.914 382.763 263.991 379.179 257.539C377.061 253.727 375.577 249.901 374.104 245.648C371.937 239.387 375.062 241.861 380.542 241.861C383.632 241.861 386.428 238.243 388.723 236.407C392.053 233.743 398.632 232.027 401.372 229.287C402.629 228.03 393.811 211.671 393.494 209.14C392.401 200.392 382.571 209.985 379.179 212.624C375.809 215.245 370.575 217.32 366.227 217.32C360.035 217.32 360.648 216.055 362.061 211.109C363.146 207.311 361.623 203.591 360.698 200.353C360.21 198.646 357.539 191.513 356.38 190.355C354.991 188.966 335.353 195.902 334.869 196.869" stroke="#2180D8" stroke-width="8" stroke-linecap="round"/>
<path d="M471.207 106.886C471.207 98.6997 469.207 92.1621 466.056 85.0721C464.06 80.5819 462.617 80.982 457.573 80.982C452.755 80.982 449.687 78.7424 445.303 78.2552C437.263 77.3619 430.19 70.4782 422.125 70.075C415.112 69.7243 408.915 66.22 403.038 62.9551C396.335 59.2313 388.579 58.1038 381.905 54.3961C374.204 50.1175 358.353 54.9601 350.624 56.3654C342.07 57.9206 332.627 55.9211 324.492 57.7288C319.741 58.7845 313.822 58.0791 309.646 55.7595C302.524 51.8024 304.875 53.5142 304.875 59.8496C304.875 65.0301 303.209 82.8761 307.601 85.0721" stroke="#2180D8" stroke-width="8" stroke-linecap="round"/>
<path d="M326.689 59.168C326.689 68.8805 328.052 78.0953 328.052 87.7989" stroke="#2180D8" stroke-width="8" stroke-linecap="round"/>
<path d="M431.669 76.8918C431.669 85.4999 431.674 93.7017 433.032 102.19C434.031 108.433 437.122 114.134 437.122 120.52" stroke="#2180D8" stroke-width="8" stroke-linecap="round"/>
<path d="M283.061 38.7174C278.45 34.6188 270.503 33.981 265.337 30.5371" stroke="#2180D8" stroke-width="8" stroke-linecap="round"/>
<path d="M289.878 34.6272C289.878 29.166 287.441 25.9541 285.788 20.9934" stroke="#2180D8" stroke-width="8" stroke-linecap="round"/>
<path d="M306.238 35.9905C306.238 30.0052 306.975 22.3977 309.647 17.0547C311.767 12.8147 315.689 9.00096 317.145 4.63281" stroke="#2180D8" stroke-width="8" stroke-linecap="round"/>
<path d="M453.483 41.4441V60.5314" stroke="#2180D8" stroke-width="8" stroke-linecap="round"/>
<path d="M461.663 61.8948C462.367 58.3777 468.176 53.0084 471.207 50.9878" stroke="#2180D8" stroke-width="8" stroke-linecap="round"/>
<path d="M478.024 78.2552C482.716 78.2552 487.141 76.8918 491.657 76.8918" stroke="#2180D8" stroke-width="8" stroke-linecap="round"/>
<path d="M307.098 253.681C307.098 252.087 305.77 247.512 306.483 248.938C307.367 250.705 307.075 253.219 308.503 254.647C309.756 255.9 311.841 260.004 311.841 256.228C311.841 254.403 312.411 251.407 311.665 249.729C310.067 246.132 309.884 248.665 311.841 250.519C312.434 251.081 316.488 255.314 316.584 253.681C316.707 251.59 316.584 249.453 316.584 247.357C316.584 243.175 316.238 247.924 316.628 249.29C318.787 256.848 317.643 241.352 318.604 241.077C320.877 240.428 322.762 241.455 324.884 239.804C326.699 238.392 328.622 237.248 330.418 235.851C334.14 232.956 338.718 233.599 338.718 227.99C338.718 222.164 337.927 217.164 337.927 211.17C337.927 207.47 332.293 202.299 338.718 202.299C341.198 202.299 349.984 202.525 349.785 199.137C349.716 197.966 347.188 199.137 351.366 199.137C354.438 199.137 353.585 200.496 353.737 203.09C353.956 206.805 355.56 212.494 356.899 216.177C357.107 216.748 360.701 222.705 360.896 222.413C362.01 220.741 364.218 221.271 365.99 221.271C369.933 221.271 374.444 221.976 377.847 220.085C382.279 217.623 384.545 216.077 388.914 218.504C393.479 221.04 390.891 225.424 390.891 229.176C390.891 230.69 391.569 234.107 390.1 234.885C387.411 236.309 383.019 236.29 379.999 236.29C378.601 236.29 375.94 239.03 376.837 236.115C377.962 232.461 380.627 229.751 382.634 226.629C384.626 223.531 385.865 219.848 387.729 216.704C388.661 215.13 388.519 211.091 388.519 214.947C388.519 219.385 389.31 223.469 389.31 227.99C389.31 229.172 381.766 233.155 380.219 234.358C377.322 236.611 373.656 243.326 369.942 244.151C368.851 244.394 364.718 244.681 364.014 243.8C363.121 242.684 364.702 248.439 365.243 249.29C366.558 251.356 368.132 253.274 368.801 255.614C369.4 257.712 372.45 259.251 372.709 261.586C373.006 264.256 374.675 267.013 375.695 269.491C376.139 270.568 371.175 270.876 370.338 271.248C368.476 272.075 366.491 272.726 364.804 273.619C363.698 274.205 362.734 276.997 361.467 278.011C358.766 280.172 359.271 274.626 359.271 273.619C359.271 271.681 358.717 269.404 357.69 267.734C354.55 262.632 352.382 256.758 351.366 250.915C349.498 240.176 341.88 231.227 341.88 220.085C341.88 214.935 342.212 230.459 343.461 235.456C344.275 238.714 347.202 244.872 343.461 246.742C339.939 248.503 334.654 251.874 330.813 252.1C327.458 252.298 321.323 256.839 318.165 253.681C316.409 251.925 316.584 249.631 316.584 247.357C316.584 244.399 318.593 244.884 320.537 244.02C321.764 243.474 326.201 242.561 327.475 243.58C330.659 246.127 328.335 243.951 330.506 240.946C331.727 239.255 338.753 231.614 341.441 232.382C343.369 232.933 342.67 237.584 342.67 239.057C342.67 242.775 333.95 239.508 332.394 243.01C330.466 247.348 325.197 247.536 320.932 248.192C317.104 248.781 311.051 251.957 311.051 244.986C311.051 243.814 310.4 239.664 311.226 238.838C312.151 237.913 316.933 238.662 318.165 238.662C324.756 238.662 327.417 232.046 333.975 230.933C338.775 230.117 347.682 229.631 351.981 232.338C355.835 234.765 359.841 238.793 363.048 242C365.299 244.251 367.054 247.962 367.176 251.134C367.244 252.908 368.15 260.779 366.737 261.586C359.193 265.897 359.716 252.112 357.338 247.357C356.549 245.779 354.528 243.272 354.528 241.516C354.528 238.569 355.151 247.529 356.548 250.124C358.4 253.563 361.075 256.5 362.828 260.005C363.725 261.8 365.749 266.104 367.527 267.12C367.862 267.311 370.209 270.984 369.108 270.984C363.893 270.984 361.34 246.766 360.852 243.405C359.749 235.811 359.271 228.144 359.271 220.48C359.271 215.907 360.663 218.058 361.467 221.271C362.779 226.521 366.082 232.723 366.385 237.871C366.423 238.519 367.176 239.761 367.176 238.311C367.176 235.529 367.176 232.748 367.176 229.966C367.176 226.867 369.214 224.507 369.547 229C369.637 230.219 371.71 236.102 371.919 232.338C372.097 229.137 373.965 228.478 376.266 227.2C378.646 225.878 384.814 223.754 386.938 226.409C387.979 227.71 389.672 228.385 391.286 228.385C393.704 228.385 390.333 225.284 390.056 224.038C389.754 222.679 388.291 218.084 387.333 217.319C386.636 216.761 386.938 215.361 386.938 214.552C386.938 213.197 384.546 216.466 383.732 216.923C376.496 220.994 369.693 226.375 361.818 229C357.25 230.523 347.413 233.759 347.413 226.804C347.413 225.178 348.191 207.833 346.623 207.833C341.665 207.833 341.257 214.169 343.637 217.143C344.69 218.459 352.684 225.88 352.903 224.345C353.324 221.401 352.918 218.602 352.2 216.089C351.89 215.002 352.156 221.918 352.156 223.599C352.156 228.671 352.947 233.293 352.947 238.267C352.947 238.852 354.017 243.81 354.484 242.175C355.629 238.166 356.378 233.798 356.065 229.571C355.637 223.799 353.45 217.803 352.2 212.18C351.418 208.659 350.575 212.173 350.575 214.157" stroke="#2180D8" stroke-width="8" stroke-linecap="round"/>
</svg>
