<svg width="335" height="335" viewBox="0 0 335 335" fill="none" xmlns="http://www.w3.org/2000/svg">
<path d="M81.7433 112.757C63.786 112.757 33.2062 97.5174 23.5937 81.1762C18.6665 72.8 17.3022 62.5087 13.5679 54.1065C8.8237 43.4321 15.4278 36.4079 21.8392 28.1648C29.2935 18.5807 42.3808 20.2695 53.5458 20.2695C62.9348 20.2695 71.0648 34.7779 76.7304 41.073C89.7208 55.5067 105.913 77.373 113.199 95.5883C117.144 105.45 106.898 75.2844 103.048 65.3855C100.594 59.0755 92.3029 38.5015 95.7794 31.5485C99.5299 24.0475 109.665 14.9057 115.58 8.99044C124.103 0.468309 138.209 4.54926 146.034 12.3741C161.67 28.01 152.705 60.3546 151.673 78.9204C151.486 82.2999 149.417 92.2056 149.417 88.8208C149.417 82.7679 151.246 77.4244 151.673 71.6517C152.86 55.6283 162.884 40.5717 179.871 40.5717C189.953 40.5717 199.097 39.3445 208.068 43.8301C218.96 49.2759 215.751 55.4414 218.846 65.8868C223.132 80.3506 209.887 89.0811 205.311 100.977C202.771 107.582 189.085 117.853 182.127 119.4C180.764 119.702 170.722 122.523 170.722 124.036C170.722 127.838 178.325 124.036 182.127 124.036C191.862 124.036 199.172 128.995 205.311 135.817C222.568 154.99 214.879 181.172 212.455 202.99C209.464 229.906 178.02 207.026 167.965 197.977C152.746 184.28 154.165 159.305 141.647 143.211C134.882 134.512 140.394 161.462 140.394 165.644C140.394 178.448 140.606 190.291 136.384 202.488C126.987 229.634 102.118 241.308 78.4849 227.803C67.1992 221.354 63.3924 183.255 76.2291 175.92C79.6389 173.971 82.6454 169.158 85.7536 166.395C86.5112 165.722 78.2668 170.447 76.1038 171.408C66.888 175.504 56.3831 180.053 46.1517 180.432C32.6687 180.931 23.4167 180.612 11.8134 174.165C2.934 169.232 3.10105 145.759 5.17129 136.443C7.09859 127.771 23.7848 124.036 31.113 124.036C42.0024 124.036 51.0597 120.102 61.4411 119.525C65.0503 119.324 79.2125 113.485 81.242 115.515C84.8341 119.107 80.9048 126.077 87.3828 129.676C92.1365 132.317 95.5428 133.06 100.918 133.06C106.997 133.06 120.843 135.609 125.732 131.806C133.696 125.612 126.773 111.581 117.836 119.525C112.546 124.227 100.334 129.208 108.312 138.073C113.43 143.76 130.595 141.559 137.011 136.569C148.33 127.765 142.829 96.1352 124.604 104.236C116.23 107.957 111.069 114.855 111.069 124.036C111.069 132.676 119.554 142.062 127.987 135.315C132.444 131.75 131.371 119.35 131.371 113.885C131.371 103.516 115.58 102.468 115.58 112.757C115.58 124.018 116.384 125.582 125.105 132.558C133.707 139.44 134.601 120.115 133.502 116.266C129.421 101.986 128.359 149.033 137.637 160.631C140.447 164.143 144.371 177.874 144.906 182.687C145.696 189.802 151.532 200.028 155.057 206.373C164.065 222.588 179.498 239.605 195.035 250.361C222.293 269.232 252.607 279.106 281.257 295.478C291.993 301.613 303.54 307.869 314.091 314.652C317.969 317.145 339.093 329.503 327.626 318.036" stroke="#2180D8" stroke-width="6.85765" stroke-linecap="round"/>
<path d="M192.278 252.617C177.101 252.617 134.607 246.367 129.24 265.149C126.466 274.861 120.092 285.941 120.092 296.605C120.092 302.02 116.646 327.121 120.092 330.568C122.844 333.319 126.352 324.803 130.243 324.803C135.883 324.803 141.522 324.803 147.162 324.803C157.36 324.803 165.169 311.968 167.589 303.498C172.22 287.289 192.278 272.634 192.278 254.873" stroke="#2180D8" stroke-width="6.85765" stroke-linecap="round"/>
<path d="M142.65 297.733C153.26 282.131 162.074 266.152 183.255 266.152" stroke="#2180D8" stroke-width="6.85765" stroke-linecap="round"/>
</svg>
