<svg width="366" height="276" viewBox="0 0 366 276" fill="none" xmlns="http://www.w3.org/2000/svg">
<path d="M7.61838 194.068C7.61838 169.944 15.0309 149.266 15.0309 125.434C15.0309 98.6441 10.0892 73.4431 10.0892 47.0536C10.0892 39.0375 6.52611 21.3218 15.1681 17.5409C25.2622 13.1248 39.7563 8.13013 50.8579 6.42218C83.4818 1.40312 118.508 8.75575 150.927 8.75575C168.704 8.75575 188.793 14.3194 205.834 19.1881C222.226 23.8716 242.69 21.5943 259.643 21.1099C264.414 20.9736 292.742 10.453 296.157 14.2465C299.247 17.6798 299.176 34.4419 299.176 38.9548C299.176 50.3023 299.176 61.6498 299.176 72.9974C299.176 110.015 296.706 146.159 296.706 182.949C296.706 205.421 291.979 203.951 270.762 203.951C246.353 203.951 222.597 201.481 198.421 201.481C173.73 201.481 148.979 200.944 124.297 201.481C105.665 201.886 87.7726 206.422 68.8401 206.422C56.006 206.422 43.9804 206.758 32.3267 200.932C28.5913 199.064 7.79457 194.466 5.14755 197.774C-2.99926 207.958 40.6869 236.397 48.3871 242.387C55.21 247.693 67.5453 257.073 71.86 264.624C78.0691 275.49 97.8923 270.664 109.472 270.664C120.15 270.664 133.699 268.163 143.514 263.8C155.192 258.61 172.846 260.781 185.518 260.781C200.526 260.781 215.534 260.781 230.542 260.781C251.031 260.781 271.179 265.722 291.627 265.722C306.086 265.722 320.545 265.722 335.004 265.722C342.867 265.722 373.745 280.917 356.006 260.643C348.415 251.969 341.175 241.461 331.297 235.111C325.342 231.283 318.523 229.569 312.766 225.091C309.058 222.207 304.708 221.367 301.647 217.541C299.421 214.758 294.084 207.582 291.764 206.422" stroke="white" stroke-width="8" stroke-linecap="round"/>
<path d="M69.3892 228.66C70.3868 233.149 84.9665 240.608 89.1558 242.936C96.2655 246.885 103.838 252.94 106.452 260.78" stroke="white" stroke-width="8" stroke-linecap="round"/>
<path d="M94.0974 226.189C106.634 227.582 119.36 249.939 131.16 255.839" stroke="white" stroke-width="8" stroke-linecap="round"/>
<path d="M126.218 213.835C127.887 228.857 150.279 241.278 158.339 253.368" stroke="white" stroke-width="8" stroke-linecap="round"/>
<path d="M158.339 226.189C168.288 234.006 180.897 242.73 187.989 253.368" stroke="white" stroke-width="8" stroke-linecap="round"/>
<path d="M195.402 218.776C206.361 224.578 209.279 240.54 220.11 245.956" stroke="white" stroke-width="8" stroke-linecap="round"/>
<path d="M225.052 226.189C231.537 227 246.113 254.663 252.231 260.781" stroke="white" stroke-width="8" stroke-linecap="round"/>
<path d="M257.172 216.305C257.172 226.087 267.936 239.423 274.468 245.955" stroke="white" stroke-width="8" stroke-linecap="round"/>
<path d="M57.0349 231.13C73.5071 231.13 89.9793 231.13 106.452 231.13C126.476 231.13 144.946 221.708 165.202 221.247C197.28 220.518 233.625 213.398 264.585 223.718" stroke="white" stroke-width="8" stroke-linecap="round"/>
<path d="M80.8181 252.029C86.6808 252.029 92.6434 252.354 98.4998 252.029C102.996 251.779 108.439 248.873 112.866 247.608C117.613 246.252 121.781 245.398 126.68 245.398C133.205 245.398 139.393 243.433 145.774 243.188C149.12 243.059 152.461 242.289 155.965 242.083C159.532 241.873 168.804 241.09 171.989 239.32C175.99 237.098 184.376 238.768 188.873 238.768C193.396 238.768 197.919 238.768 202.441 238.768C211.902 238.768 220.395 237.662 230.008 237.662C234.517 237.662 237.437 237.662 241.918 237.662C245.623 237.662 249.33 236.557 253.276 236.557C262.996 236.557 273.724 237.786 283.053 240.118C291.887 242.327 298.391 245.398 307.365 245.398" stroke="white" stroke-width="8" stroke-linecap="round"/>
<path d="M284.158 222.191C284.158 228.883 288.153 232.934 290.236 238.768C292.405 244.841 292.64 248.355 297.419 253.134" stroke="white" stroke-width="8" stroke-linecap="round"/>
<path d="M28.8782 175.776C28.8782 162.147 28.8782 148.517 28.8782 134.888C28.8782 125.581 32.1935 116.993 32.1935 107.874C32.1935 102.64 32.9805 95.8355 34.1581 90.6833C35.2008 86.1218 35.5088 81.0163 35.5088 76.3169C35.5088 71.5217 37.2739 63.3594 34.9563 59.1877C33.617 56.7771 33.4476 49.0124 33.2986 46.479C33.0182 41.7118 33.7497 36.7398 39.3767 35.4893C43.9955 34.4629 48.8697 34.3228 53.6817 34.3228C57.5154 34.3228 65.1375 34.5386 68.662 32.9721C77.2633 29.1493 94.0427 32.1126 103.473 32.1126C110.195 32.1126 116.31 33.2177 122.751 33.2177C133.769 33.2177 145.721 31.8839 156.579 33.4633C163.674 34.4952 170.452 35.6445 177.576 36.5944C181.466 37.1131 184.889 38.9697 188.566 39.7869C192.606 40.6848 197.15 39.4593 201.275 40.0939C208.459 41.1992 214.482 41.5434 221.167 44.5144C226.616 46.9363 229.385 45.9464 235.042 44.3302C241.413 42.5099 250.803 46.1272 257.083 47.5227C261.426 48.4879 261.579 47.6625 262.117 53.0482C262.564 57.5188 264.802 62.3306 266.231 66.6165C268.888 74.588 267.581 83.921 267.581 92.2795C267.581 104.415 267.581 116.551 267.581 128.687C267.581 134.974 270.571 177.987 262.608 177.987C242.07 177.987 221.448 176.418 201.029 176.882C189.11 177.152 176.315 178.967 164.561 181.056C150.825 183.498 135.645 182.407 121.707 182.407C102.11 182.407 82.8887 183.512 63.3821 183.512C54.8277 183.512 46.2734 183.512 37.719 183.512C31.4876 183.512 28.8782 184.872 28.8782 177.987" stroke="white" stroke-width="8" stroke-linecap="round"/>
<path d="M70.1337 64.946C67.9067 65.1935 63.641 69.3412 61.6217 70.9117C60.3441 71.9054 51.7656 78.0415 56.3836 78.0415C61.4913 78.0415 65.287 83.8555 69.8427 85.6077C73.093 86.8578 76.4687 89.4017 77.991 92.4464" stroke="white" stroke-width="8" stroke-linecap="round"/>
<path d="M155.254 64.946C157.412 67.1044 175.124 82.8081 169.368 84.8802C163.943 86.8332 158.274 88.0613 152.926 90.1184C151.551 90.647 145.712 95.8155 147.397 92.4464" stroke="white" stroke-width="8" stroke-linecap="round"/>
<path d="M83.2292 62.3269C83.2292 71.5344 88.4674 79.8007 88.4674 88.5177C88.4674 91.6886 87.3648 81.4168 89.4859 79.0599C100.611 66.6983 96.9518 87.5218 101.563 89.8273" stroke="white" stroke-width="8" stroke-linecap="round"/>
<path d="M101.563 66.2556C101.563 71.2019 106.114 88.8293 110.73 91.1369" stroke="white" stroke-width="8" stroke-linecap="round"/>
<path d="M106.801 80.6606C109.802 80.6606 112.521 79.3511 115.968 79.3511" stroke="white" stroke-width="8" stroke-linecap="round"/>
<path d="M121.206 92.4463C121.814 87.5795 122.928 94.1682 123.825 95.0654C126.414 97.6547 123.854 86.9635 123.825 86.1896C123.748 84.1185 124.847 78.664 123.534 77.0228C121.158 74.0529 124.355 81.0465 124.843 81.9699C126.108 84.3577 128.675 87.7689 130.664 89.5362C131.748 90.5004 131.682 82.8498 131.682 81.9699C131.682 77.9043 138.646 89.7674 139.539 92.4463" stroke="white" stroke-width="8" stroke-linecap="round"/>
<path d="M139.54 55.7793C139.54 62.8064 142.081 68.6355 144.487 75.1314C145.443 77.7135 146.493 83.4823 148.706 84.5892" stroke="white" stroke-width="8" stroke-linecap="round"/>
</svg>
