<svg width="213" height="211" viewBox="0 0 213 211" fill="none" xmlns="http://www.w3.org/2000/svg">
<path d="M84.9953 200.723L82.2242 199.848L82.1609 199.727C81.7817 198.997 81.8157 197.925 81.9355 197.116L81.6276 197.019L78.4774 198.631C78.1809 198.605 77.288 198.323 76.9185 198.207C72.1152 196.69 71.2366 192.18 72.4809 188.239C73.6183 184.637 76.5853 180.495 81.4501 182.031C83.5131 182.682 84.7043 184.378 84.9215 185.835L85.2294 185.933L88.35 176.049L91.8293 177.147L85.8118 196.207C85.384 197.561 85.0584 198.915 85.0099 200.355L84.9953 200.723ZM83.4601 191.536C84.267 188.981 84.5375 186.087 81.4892 185.124C78.5641 184.201 76.9956 186.38 76.1984 188.905C75.4693 191.214 75.147 194.702 77.8874 195.567C81.1204 196.588 82.5949 194.277 83.4601 191.536Z" fill="white"/>
<path d="M60.2603 191.099L57.7191 189.5L57.7332 189.356C57.6026 188.473 57.8038 187.607 58.1074 186.883L54.607 187.655L54.4977 187.587C54.19 187.469 53.8722 187.307 53.599 187.135C50.7025 185.312 50.9926 182.366 52.1106 180.59L52.6438 179.743L57.4183 178.704L56.8445 179.373C56.4529 179.813 56.1332 180.261 55.8408 180.725C55.0324 182.009 54.4385 183.62 56.1874 184.72C57.1984 185.357 57.9756 185.274 58.6617 184.79C59.3852 184.368 59.9286 183.565 60.3242 182.937L65.4328 174.821L68.5479 176.782L62.1664 186.92C61.4096 188.122 60.6902 189.386 60.3504 190.775L60.2603 191.099Z" fill="white"/>
<path d="M48.9364 161.667C52.6628 165.564 51.5156 169.877 48.2483 173.001C45.0277 176.081 40.4085 177.37 36.6375 173.426C32.8664 169.482 34.3617 164.925 37.5822 161.846C40.8495 158.722 45.2099 157.769 48.9364 161.667ZM39.0412 171.128C41.2503 173.438 43.7867 172.353 45.7938 170.434C47.8241 168.493 48.7417 166.275 46.5326 163.965C44.3235 161.655 42.0671 162.472 40.0368 164.413C38.0297 166.332 36.8322 168.817 39.0412 171.128Z" fill="white"/>
<path d="M44.6498 152.026L40.2776 150.97C40.9158 150.651 44.0455 149.021 43.4005 147.977C42.8064 147.016 41.463 148.036 40.4741 148.647L25.1751 158.101L23.257 154.998L38.5561 145.543C40.5062 144.338 44.2022 142.395 46.3579 145.884C47.6649 147.999 46.7348 150.547 44.7871 151.941L44.6498 152.026ZM20.4124 156.414L22.6021 159.957L18.6194 162.418L16.4297 158.875L20.4124 156.414Z" fill="white"/>
<path d="M31.0012 132.99C33.1339 138.88 29.8217 142.346 26.1178 143.687C22.5657 144.973 17.6417 144.936 15.5199 139.077C14.2337 135.525 15.6668 132.465 17.782 130.909C18.152 130.603 18.6849 130.273 19.1707 130.097C19.5046 129.976 19.8386 129.855 20.2055 129.825L20.3683 129.801L26.2611 139.72C28.0832 138.683 28.9326 136.761 27.9542 134.059C27.2616 132.146 25.7431 131.082 24.1544 130.868L23.7241 130.818L25.3593 127.272L25.5247 127.35C27.8849 128.178 29.9458 130.076 31.0012 132.99ZM18.5972 137.997C19.6306 140.851 21.804 141.162 23.8239 140.671L19.4938 133.929C18.3422 134.827 17.9486 136.206 18.5972 137.997Z" fill="white"/>
<path d="M26.773 113.737C27.3864 119.971 23.0906 122.145 19.2989 122.519C15.5714 122.885 10.6512 121.682 10.0378 115.449C9.61726 111.175 12.0414 108.114 15.0013 107.53L15.0977 107.521L18.3096 110.157L17.6027 110.227C15.2248 110.461 12.7874 111.739 13.1226 115.145C13.461 118.583 16.5347 119.157 18.8805 118.926C21.2905 118.689 24.0423 117.639 23.6913 114.073C23.4921 112.048 22.1736 110.848 20.687 110.248L20.2824 110.093L22.7418 107.061L22.883 107.177C25.0687 108.616 26.4473 110.427 26.773 113.737Z" fill="white"/>
<path d="M12.678 100.31L10.1491 99.9759L10.1503 97.5008L3.94023 96.6807L4.42215 93.0315L10.5362 93.8389L11.2041 88.7813L14.1491 89.1702L13.4812 94.2279L20.5875 95.1663C21.836 95.3312 23.4087 95.5063 23.5398 94.514C23.6793 93.4577 20.3568 93.2143 19.4841 93.1642L23.0076 90.4052L23.1677 90.4263C25.5473 90.9034 27.4015 92.6465 27.0211 95.5274C26.4884 99.5608 22.5704 99.1411 20.1056 98.8156L12.9993 97.8771L12.678 100.31Z" fill="white"/>
<path d="M18.244 80.4323C15.2267 79.2827 14.5199 75.6964 15.8994 72.0756C17.0604 69.0282 19.312 67.0181 21.7302 66.3846L21.9989 66.3142L23.5865 69.856C21.4327 69.7956 19.74 71.1547 18.9353 73.2669C18.2801 74.9867 18.5142 76.458 19.6306 76.8834C20.5358 77.2282 21.2385 76.563 21.6868 75.3863L22.8895 72.3201C24.2302 68.8919 26.7605 67.7828 29.2347 68.7254C32.1916 69.852 33.2318 73.2889 31.7948 77.0605C30.7372 79.8364 28.3793 82.6698 25.9956 83.2128L25.757 83.2947L24.1063 79.556L24.7342 79.4497C26.1753 79.2041 27.7515 77.6969 28.4298 75.9167C29.0161 74.3779 28.8279 72.7859 27.5305 72.2916C26.0822 71.7398 25.2947 73.4438 24.9427 74.2772L24.6941 74.8389L24.0273 76.589C22.8548 79.6666 20.869 81.4324 18.244 80.4323Z" fill="white"/>
<path d="M30.5566 45.438L32.5647 43.3376L32.7017 43.3345C33.5234 43.316 34.4711 43.82 35.1438 44.2845L35.3669 44.0511L35.3103 40.5126C35.4645 40.2579 36.1115 39.5811 36.3793 39.3011C39.8602 35.6603 44.2947 36.8625 47.282 39.7186C50.0126 42.3292 52.42 46.8198 48.8945 50.5072C47.3995 52.0709 45.3513 52.3909 43.9482 51.9428L43.7251 52.1762L51.2166 59.3388L48.6952 61.976L34.2489 48.1641C33.222 47.1823 32.1515 46.2928 30.8802 45.6134L30.5566 45.438ZM39.4775 48.1152C41.4146 49.9672 43.8923 51.4874 46.1013 49.1769C48.2211 46.9597 46.9575 44.5902 45.0438 42.7605C43.2934 41.087 40.3063 39.2586 38.3205 41.3357C35.9776 43.7862 37.4004 46.1293 39.4775 48.1152Z" fill="white"/>
<path d="M50.1093 27.4904L52.6664 25.9161L52.7891 25.9923C53.6395 26.265 54.3271 26.8275 54.8434 27.4197L55.6951 23.9377L55.8051 23.87C56.0462 23.6457 56.3317 23.432 56.6067 23.2627C59.5212 21.4684 62.0366 23.0289 63.1369 24.8161L63.6617 25.6685L62.4865 30.4112L62.1395 29.6011C61.9173 29.0554 61.657 28.5711 61.3692 28.1037C60.5736 26.8114 59.3909 25.5678 57.6312 26.6512C56.6138 27.2776 56.3453 28.0116 56.4767 28.8408C56.5361 29.6763 57.0164 30.5181 57.4058 31.1505L62.4334 39.3166L59.2989 41.2464L53.0186 31.0457C52.2738 29.8359 51.457 28.6324 50.3611 27.7146L50.1093 27.4904Z" fill="white"/>
<path d="M81.5181 30.3198C76.3762 31.9434 73.012 29.0102 71.6509 24.6996C70.3092 20.4505 71.1909 15.7365 76.3945 14.0934C81.598 12.4503 85.0269 15.8033 86.3686 20.0523C87.7297 24.3629 86.6601 28.6962 81.5181 30.3198ZM77.3959 17.2648C74.3476 18.2273 74.2017 20.9822 75.0378 23.6301C75.8837 26.3089 77.4685 28.1109 80.5167 27.1484C83.5649 26.1859 83.8275 23.8005 82.9817 21.1218C82.1456 18.4738 80.4441 16.3023 77.3959 17.2648Z" fill="white"/>
<path d="M92.0614 30.7288L94.9385 27.2715C94.9426 27.9848 95.0243 31.5128 96.2456 31.3947C97.3704 31.2859 97.0481 29.6302 96.9362 28.4732L95.205 10.572L98.8367 10.2207L100.568 28.122C100.789 30.4038 100.9 34.5777 96.8186 34.9724C94.344 35.2118 92.4676 33.2522 92.0769 30.8895L92.0614 30.7288ZM98.8213 7.04319L94.6754 7.44413L94.2248 2.78403L98.3706 2.38308L98.8213 7.04319Z" fill="white"/>
<path d="M115.166 26.8833C108.94 26.1975 107.292 21.6956 107.723 17.7801C108.137 14.025 110.344 9.62287 116.538 10.3052C120.293 10.7188 122.406 13.3554 122.869 15.9401C122.98 16.4071 123.041 17.031 122.984 17.5445C122.945 17.8975 122.907 18.2506 122.771 18.593L122.722 18.75L111.22 19.6594C111.346 21.7524 112.696 23.3628 115.552 23.6774C117.574 23.9001 119.199 23.0072 120.093 21.6763L120.328 21.3124L122.787 24.3444L122.645 24.4587C120.86 26.2111 118.248 27.2227 115.166 26.8833ZM116.149 13.5432C113.132 13.2109 111.893 15.0234 111.442 17.0527L119.403 16.143C119.106 14.7135 118.042 13.7517 116.149 13.5432Z" fill="white"/>
<path d="M134.309 31.5872C128.445 29.3862 128.389 24.5716 129.728 21.0045C131.044 17.4979 134.295 13.6138 140.16 15.8149C144.18 17.3238 145.857 20.8502 145.074 23.7636L145.04 23.8543L141.257 25.5728L141.506 24.9077C142.346 22.6707 142.275 19.9195 139.071 18.7169C135.836 17.5029 133.965 20.008 133.136 22.2147C132.285 24.482 132.013 27.4145 135.368 28.6738C137.273 29.3886 138.932 28.7353 140.126 27.6661L140.444 27.3714L142.079 30.9167L141.913 30.9922C139.656 32.318 137.423 32.7558 134.309 31.5872Z" fill="white"/>
<path d="M152.579 24.8656L153.994 22.7438L156.215 23.8373L159.692 18.6268L162.754 20.6699L159.33 25.7998L163.574 28.6315L161.925 31.1024L157.682 28.2708L153.703 34.2333C153.004 35.2807 152.153 36.6147 152.985 37.1703C153.872 37.7617 155.556 34.8878 155.987 34.1268L156.907 38.5063L156.817 38.6406C155.339 40.5653 152.957 41.4598 150.539 39.8468C147.155 37.5887 149.261 34.2582 150.641 32.1902L154.62 26.2277L152.579 24.8656Z" fill="white"/>
<path d="M167.958 38.6337C170.322 36.4336 173.852 37.3823 176.492 40.2182C178.714 42.6051 179.524 45.5127 179.025 47.9623L178.97 48.2344L175.091 48.0957C176.096 46.1897 175.623 44.071 174.083 42.4167C172.829 41.0696 171.405 40.6303 170.531 41.4444C169.822 42.1044 170.109 43.0285 170.967 43.9502L173.187 46.3827C175.672 49.0989 175.55 51.8589 173.612 53.663C171.296 55.8191 167.753 55.2355 165.003 52.2813C162.979 50.1071 161.477 46.7407 162.042 44.3621L162.074 44.1119L166.157 44.2808L165.976 44.8911C165.56 46.2927 166.217 48.3724 167.515 49.7667C168.637 50.972 170.148 51.5058 171.165 50.5598C172.299 49.5037 171.117 48.045 170.525 47.3613L170.131 46.8903L168.855 45.5196C166.61 43.109 165.902 40.5478 167.958 38.6337Z" fill="white"/>
<path d="M193.925 65.1275L194.924 67.8566L194.866 67.9809C194.52 68.7264 193.649 69.3543 192.936 69.7529L193.047 70.0561L196.247 71.5671C196.407 71.8179 196.729 72.6972 196.862 73.0611C198.593 77.7915 195.557 81.2402 191.675 82.6601C188.128 83.958 183.035 84.1362 181.283 79.3452C180.539 77.3135 181.156 75.3344 182.178 74.2731L182.067 73.9699L172.333 77.5309L171.079 74.1044L189.849 67.2375C191.184 66.7494 192.454 66.1814 193.625 65.3405L193.925 65.1275ZM187.586 71.9509C185.069 72.8716 182.611 74.424 183.709 77.426C184.763 80.3067 187.447 80.2187 189.934 79.309C192.208 78.477 195.167 76.6037 194.18 73.9049C193.015 70.721 190.284 70.9636 187.586 71.9509Z" fill="white"/>
<path d="M201.4 90.5944L201.684 93.5837L201.562 93.6602C200.942 94.303 200.133 94.6717 199.374 94.8735L202.123 97.1747L202.135 97.3033C202.23 97.6186 202.295 97.9691 202.326 98.2905C202.65 101.698 200.139 103.266 198.05 103.465L197.053 103.559L193.316 100.412L194.196 100.458C194.784 100.499 195.334 100.479 195.88 100.427C197.391 100.284 199.029 99.7715 198.833 97.7143C198.72 96.5249 198.18 95.96 197.378 95.7119C196.602 95.3964 195.635 95.4559 194.895 95.5261L185.349 96.4332L185 92.7688L196.926 91.6357C198.34 91.5013 199.781 91.2996 201.088 90.7213L201.4 90.5944Z" fill="white"/>
<path d="M184.998 117.529C185.811 112.199 189.928 110.474 194.396 111.156C198.801 111.827 202.642 114.699 201.82 120.094C200.997 125.488 196.475 127.085 192.07 126.413C187.602 125.732 184.185 122.86 184.998 117.529ZM198.532 119.592C199.014 116.432 196.606 115.085 193.861 114.667C191.084 114.244 188.768 114.87 188.286 118.03C187.804 121.19 189.829 122.479 192.606 122.902C195.351 123.321 198.05 122.752 198.532 119.592Z" fill="white"/>
<path d="M179.978 126.81L181.81 130.917C181.168 130.606 177.966 129.122 177.533 130.27C177.134 131.328 178.762 131.769 179.85 132.179L196.677 138.527L195.389 141.941L178.562 135.593C176.417 134.784 172.623 133.042 174.07 129.205C174.947 126.879 177.534 126.06 179.827 126.753L179.978 126.81ZM198.248 143.33L199.718 139.432L204.098 141.085L202.628 144.982L198.248 143.33Z" fill="white"/>
<path d="M173.23 149.24C176.594 143.955 181.361 144.464 184.684 146.579C187.871 148.607 190.847 152.53 187.501 157.787C185.472 160.974 182.174 161.707 179.65 160.981C179.182 160.875 178.595 160.654 178.16 160.377C177.86 160.186 177.56 159.995 177.313 159.723L177.194 159.609L181.454 148.886C179.52 148.076 177.48 148.576 175.937 151.001C174.844 152.717 174.928 154.569 175.728 155.958L175.951 156.33L172.145 157.199L172.105 157.02C171.32 154.646 171.566 151.855 173.23 149.24ZM184.767 156.009C186.397 153.449 185.317 151.537 183.695 150.236L180.998 157.782C182.412 158.146 183.744 157.616 184.767 156.009Z" fill="white"/>
<path d="M160.56 164.341C165.124 160.05 169.468 162.125 172.078 164.901C174.644 167.629 176.694 172.261 172.131 176.552C169.002 179.494 165.098 179.442 162.829 177.453L162.763 177.383L162.891 173.23L163.377 173.747C165.014 175.488 167.514 176.638 170.008 174.294C172.525 171.927 171.103 169.142 169.488 167.425C167.829 165.661 165.318 164.122 162.707 166.577C161.225 167.97 161.079 169.747 161.511 171.291L161.636 171.706L157.733 171.609L157.738 171.426C157.544 168.816 158.137 166.619 160.56 164.341Z" fill="white"/>
<path d="M158.528 183.701L159.807 185.908L157.846 187.418L160.987 192.837L157.802 194.683L154.71 189.347L150.296 191.905L148.806 189.335L153.22 186.777L149.626 180.575C148.994 179.486 148.173 178.133 147.307 178.635C146.385 179.169 148.22 181.949 148.713 182.671L144.377 181.564L144.296 181.425C143.222 179.248 143.471 176.716 145.985 175.259C149.505 173.219 151.564 176.578 152.811 178.729L156.405 184.931L158.528 183.701Z" fill="white"/>
<path d="M139.385 191.425C140.317 194.516 137.907 197.265 134.197 198.383C131.075 199.323 128.108 198.766 126.13 197.238L125.91 197.068L127.747 193.648C129.014 195.391 131.123 195.902 133.288 195.251C135.05 194.72 136.072 193.636 135.728 192.493C135.449 191.565 134.493 191.414 133.287 191.778L130.124 192.696C126.59 193.727 124.167 192.4 123.404 189.865C122.491 186.835 124.579 183.913 128.443 182.749C131.288 181.892 134.971 182.031 136.857 183.587L137.067 183.726L135.113 187.316L134.646 186.884C133.571 185.892 131.415 185.563 129.591 186.113C128.015 186.588 126.868 187.708 127.269 189.038C127.716 190.522 129.546 190.105 130.421 189.876L131.018 189.73L132.811 189.19C135.965 188.24 138.575 188.735 139.385 191.425Z" fill="white"/>
</svg>
