<svg width="77" height="510" viewBox="0 0 77 510" fill="none" xmlns="http://www.w3.org/2000/svg">
<path d="M77 498.6V510H1.99999L1.99999 482.2C1.99999 469.4 8.6 458.9 21.8 458.9C35.3 458.9 42.9 468.2 42.9 482.2V498.6H77ZM11.2 482.2V498.6H33.6V482.2C33.6 474 29.9 469.3 22.1 469.3C14.7 469.3 11.2 474.3 11.2 482.2ZM77 451.406H1.99999L1.99999 423.606C1.99999 411.106 7.3 400.306 20.8 400.306C28.9 400.306 36.6 403.106 38.6 413.506H39.6C40.1 412.406 48.5 401.306 48.5 401.306H77V412.706H52.9C45.4 412.706 41.9 416.606 41.9 424.606V440.006H77V451.406ZM12.2 440.006H32.7V423.606C32.7 415.606 29.7 410.706 22.1 410.706C14.8 410.706 12.2 416.006 12.2 423.606V440.006ZM38.8 392.773C17.9 392.773 0.199999 381.373 0.199999 356.873C0.199999 332.673 17.6 320.973 38.4 320.973C59.4 320.973 77 332.973 77 357.373C77 381.773 59.5 392.773 38.8 392.773ZM39.1 381.373C55 381.373 65.9 375.273 65.9 357.373C65.9 339.173 54.7 332.473 38.6 332.473C22.8 332.473 11.3 338.873 11.3 356.873C11.3 375.073 23.1 381.373 39.1 381.373ZM50.4 310.977C48.5 310.977 46.5 310.977 44.6 310.777L43.1 310.677L49.3 299.877H49.7C57.4 299.877 66.8 299.177 66.8 289.877C66.8 285.277 63.9 283.177 59.6 282.077C55.6 280.977 50.9 280.977 46.8 280.977H1.99999L1.99999 269.677H47.6C60.4 269.677 77 271.077 77 289.877C77 306.977 63.3 310.977 50.4 310.977ZM77 205.129V254.629H1.99999L1.99999 205.129H11.7L11.7 243.229H33.6L33.6 209.129H42.9L42.9 243.229H67.3V205.129H77ZM77 162.556C77 187.656 56.1 197.656 39.3 197.656C23.1 197.656 -4.05312e-06 187.956 -4.05312e-06 163.056C-4.05312e-06 146.456 8.7 135.656 19.8 130.656C22.1 129.556 24.5 128.756 27 128.356L36 137.756C24.8 137.756 10.9 144.856 10.9 163.056C10.9 180.456 26.4 186.256 39 186.256C52.2 186.256 66.2 180.356 66.2 162.556C66.2 150.656 60.2 145.456 52 141.756L50.8 141.156L59.9 131.956L60.3 132.256C70.6 138.256 77 146.456 77 162.556ZM11.2 125.84H1.99999L1.99999 62.2398H11.2L11.2 88.4398H77V99.7398H11.2L11.2 125.84ZM40.5 38.4266C38.2 48.7266 32.8 57.2266 21.6 57.2266C8.8 57.2266 0.199999 45.7266 0.199999 32.9266C0.199999 25.3266 1.4 18.8266 5.6 12.3266C8.89999 7.22656 14.6 2.72656 20.6 1.82656H21.3L31.3 12.3266H27.9C17.6 12.3266 10.3 20.5266 10.3 31.4266C10.3 38.6266 13.9 45.8266 21.1 45.8266C27.7 45.8266 30.7 39.1266 32 32.4266C32.7 28.8266 33.3 24.9266 34.1 21.3266C36.9 9.82656 42 0.326558 55.6 0.326558C70.5 0.326558 77 12.3266 77 26.5266C77 42.2266 69.5 53.2266 54.8 56.8266H53.9L44.4 46.7266H47.7C58.7 46.7266 66.7 38.3266 66.7 26.7266C66.7 18.7266 63.9 11.7266 55.9 11.7266C47.1 11.7266 44.4 20.5266 42.5 28.9266C41.8 32.1266 41.2 35.3266 40.5 38.4266Z" fill="#EFECE6"/>
</svg>
