<svg width="77" height="510" viewBox="0 0 77 510" fill="none" xmlns="http://www.w3.org/2000/svg">
<path d="M77 498.6H42.9V482.2C42.9 468.2 35.3 458.9 21.8 458.9C8.6 458.9 1.99999 469.4 1.99999 482.2L1.99999 510H77V498.6ZM11.2 482.2C11.2 474.3 14.7 469.3 22.1 469.3C29.9 469.3 33.6 474 33.6 482.2V498.6H11.2V482.2ZM77 451.406V440.006H41.9V424.606C41.9 416.606 45.4 412.706 52.9 412.706H77V401.306H48.5C48.5 401.306 40.1 412.406 39.6 413.506H38.6C36.6 403.106 28.9 400.306 20.8 400.306C7.3 400.306 1.99999 411.106 1.99999 423.606L1.99999 451.406H77ZM12.2 440.006V423.606C12.2 416.006 14.8 410.706 22.1 410.706C29.7 410.706 32.7 415.606 32.7 423.606V440.006H12.2ZM38.8 392.773C59.5 392.773 77 381.773 77 357.373C77 332.973 59.4 320.973 38.4 320.973C17.6 320.973 0.199999 332.673 0.199999 356.873C0.199999 381.373 17.9 392.773 38.8 392.773ZM39.1 381.373C23.1 381.373 11.3 375.073 11.3 356.873C11.3 338.873 22.8 332.473 38.6 332.473C54.7 332.473 65.9 339.173 65.9 357.373C65.9 375.273 55 381.373 39.1 381.373ZM50.4 310.977C63.3 310.977 77 306.977 77 289.877C77 271.077 60.4 269.677 47.6 269.677H1.99999L1.99999 280.977H46.8C50.9 280.977 55.6 280.977 59.6 282.077C63.9 283.177 66.8 285.277 66.8 289.877C66.8 299.177 57.4 299.877 49.7 299.877H49.3L43.1 310.677L44.6 310.777C46.5 310.977 48.5 310.977 50.4 310.977ZM77 205.129H67.3V243.229H42.9L42.9 209.129H33.6L33.6 243.229H11.7L11.7 205.129H1.99999L1.99999 254.629H77V205.129ZM77 162.556C77 146.456 70.6 138.256 60.3 132.256L59.9 131.956L50.8 141.156L52 141.756C60.2 145.456 66.2 150.656 66.2 162.556C66.2 180.356 52.2 186.256 39 186.256C26.4 186.256 10.9 180.456 10.9 163.056C10.9 144.856 24.8 137.756 36 137.756L27 128.356C24.5 128.756 22.1 129.556 19.8 130.656C8.7 135.656 -4.05312e-06 146.456 -4.05312e-06 163.056C-4.05312e-06 187.956 23.1 197.656 39.3 197.656C56.1 197.656 77 187.656 77 162.556ZM11.2 125.84L11.2 99.7398H77V88.4398H11.2L11.2 62.2398H1.99999L1.99999 125.84H11.2ZM40.5 38.4266C41.2 35.3266 41.8 32.1266 42.5 28.9266C44.4 20.5266 47.1 11.7266 55.9 11.7266C63.9 11.7266 66.7 18.7266 66.7 26.7266C66.7 38.3266 58.7 46.7266 47.7 46.7266H44.4L53.9 56.8266H54.8C69.5 53.2266 77 42.2266 77 26.5266C77 12.3266 70.5 0.326558 55.6 0.326558C42 0.326558 36.9 9.82656 34.1 21.3266C33.3 24.9266 32.7 28.8266 32 32.4266C30.7 39.1266 27.7 45.8266 21.1 45.8266C13.9 45.8266 10.3 38.6266 10.3 31.4266C10.3 20.5266 17.6 12.3266 27.9 12.3266H31.3L21.3 1.82656H20.6C14.6 2.72656 8.89999 7.22656 5.6 12.3266C1.4 18.8266 0.199999 25.3266 0.199999 32.9266C0.199999 45.7266 8.8 57.2266 21.6 57.2266C32.8 57.2266 38.2 48.7266 40.5 38.4266Z" fill="white"/>
</svg>
