<svg width="211" height="211" viewBox="0 0 211 211" fill="none" xmlns="http://www.w3.org/2000/svg">
<path d="M111.23 191.376C111.041 195.624 106.85 197.992 101.752 197.765C97.4614 197.575 94.0164 195.592 92.2235 192.83L92.0243 192.523L95.7957 189.073C96.6115 191.791 99.0113 193.344 101.985 193.476C104.407 193.584 106.149 192.682 106.219 191.11C106.276 189.836 105.153 189.233 103.496 189.159L99.165 188.924C94.3239 188.667 91.89 185.962 92.0447 182.479C92.2295 178.315 96.0962 175.593 101.407 175.828C105.315 176.002 109.833 177.777 111.499 180.533L111.7 180.797L107.708 184.409L107.316 183.668C106.412 181.967 103.875 180.62 101.369 180.509C99.2024 180.413 97.2898 181.307 97.2087 183.134C97.1181 185.173 99.5746 185.452 100.762 185.547L101.567 185.626L104.031 185.735C108.365 185.928 111.394 187.68 111.23 191.376Z" fill="#2180D8"/>
<path d="M83.465 173.243L70.557 200.16L66.1859 198.064L73.6159 182.669L73.2325 182.485L62.3191 187.344L56.7976 184.696L69.4943 179.56L65.1751 164.473L70.2748 166.918L73.5758 177.933L76.446 176.669L79.0938 171.147L83.465 173.243Z" fill="#2180D8"/>
<path d="M40.2527 170.876L55.1003 155.243L58.5845 158.553L43.7369 174.185L40.2527 170.876ZM41.0828 177.412L36.8365 181.883L32.8589 178.105L37.1053 173.634L41.0828 177.412Z" fill="#2180D8"/>
<path d="M19.8239 158.753L44.8326 142.297L47.4974 146.346L22.4886 162.802L19.8239 158.753Z" fill="#2180D8"/>
<path d="M9.62421 137.295L37.7885 127.146L39.432 131.707L11.2677 141.856L9.62421 137.295Z" fill="#2180D8"/>
<path d="M19.4752 117.169C15.2243 117.281 12.5658 113.268 12.431 108.166C12.3175 103.873 14.0522 100.296 16.6797 98.3127L16.9717 98.0923L20.6805 101.61C18.0271 102.616 16.6469 105.12 16.7256 108.095C16.7896 110.519 17.8123 112.193 19.3851 112.151C20.6604 112.118 21.1827 110.955 21.1389 109.298L21.0668 104.96C20.9812 100.113 23.5069 97.4941 26.9927 97.402C31.1586 97.2919 34.1481 100.956 34.2886 106.27C34.3919 110.181 32.9404 114.813 30.3095 116.67L30.0601 116.889L26.1756 113.163L26.887 112.719C28.5191 111.697 29.6833 109.072 29.617 106.564C29.5597 104.396 28.5326 102.551 26.7046 102.599C24.6642 102.653 24.5593 105.123 24.5483 106.315L24.5271 107.124L24.5923 109.589C24.7069 113.925 23.1736 117.071 19.4752 117.169Z" fill="#2180D8"/>
<path d="M28.5721 64.7274C25.059 62.3313 25.2514 57.521 28.1267 53.3053C30.5468 49.7571 34.0462 47.8715 37.3377 47.8002L37.7034 47.7922L38.6529 52.8151C35.9125 52.0784 33.3283 53.3013 31.651 55.7605C30.2852 57.763 30.1348 59.7193 31.4346 60.6059C32.4886 61.3247 33.5922 60.6877 34.5267 59.3175L37.0059 55.7581C39.7725 51.7772 43.3532 51.1309 46.2339 53.0957C49.6768 55.4439 49.9571 60.1648 46.962 64.5562C44.7576 67.7882 40.87 70.6958 37.6503 70.6618L37.3197 70.6937L36.3496 65.3993L37.1864 65.4554C39.1076 65.5818 41.588 64.1337 43.0017 62.061C44.2238 60.2693 44.47 58.1724 42.9594 57.1421C41.2731 55.992 39.7428 57.9337 39.0368 58.8934L38.5464 59.537L37.1567 61.5746C34.7126 65.1579 31.6285 66.812 28.5721 64.7274Z" fill="#2180D8"/>
<path d="M58.6022 50.6607L42.507 25.5192L46.5898 22.9054L55.7709 37.3256L56.1291 37.0963L57.7407 25.2593L62.8979 21.9577L60.5831 35.4568L75.6855 39.7242L70.9223 42.7736L59.8186 39.7836L59.3834 42.8897L62.685 48.0469L58.6022 50.6607Z" fill="#2180D8"/>
<path d="M83.3564 15.1622L88.8353 36.0142L84.1878 37.2354L78.7089 16.3833L83.3564 15.1622ZM77.3619 12.4284L75.795 6.46476L81.1005 5.07071L82.6675 11.0343L77.3619 12.4284Z" fill="#2180D8"/>
<path d="M104.416 4.1713L105.248 34.0969L100.402 34.2316L99.5702 4.30595L104.416 4.1713Z" fill="#2180D8"/>
<path d="M128.03 6.79074L121.838 36.0806L117.095 35.0779L123.287 5.78808L128.03 6.79074Z" fill="#2180D8"/>
<path d="M139.959 25.7591C142.101 22.0853 146.913 21.9369 151.321 24.5068C155.032 26.6698 157.16 30.0271 157.464 33.3053L157.498 33.6695L152.555 34.9719C153.096 32.1863 151.693 29.695 149.121 28.1959C147.027 26.9752 145.065 26.9636 144.273 28.3229C143.63 29.425 144.344 30.4808 145.777 31.3161L149.503 33.5372C153.669 36.0154 154.567 39.5413 152.811 42.5539C150.712 46.1542 146.023 46.7678 141.431 44.0908C138.051 42.1205 134.876 38.4483 134.682 35.2343L134.627 34.9068L139.839 33.5646L139.842 34.4033C139.852 36.3286 141.472 38.7004 143.64 39.9639C145.513 41.0561 147.622 41.1535 148.543 39.5737C149.571 37.8103 147.526 36.4212 146.519 35.7849L145.842 35.3412L143.711 34.0991C139.964 31.9147 138.096 28.9553 139.959 25.7591Z" fill="#2180D8"/>
<path d="M179.764 61.0924C183.65 59.3661 187.639 62.0612 189.711 66.7247C191.454 70.6499 191.216 74.6178 189.544 77.4541L189.359 77.7693L184.588 75.9333C186.656 73.9908 186.977 71.1498 185.768 68.4294C184.784 66.2142 183.2 65.0567 181.762 65.6955C180.596 66.2133 180.557 67.4871 181.23 69.0027L182.952 72.984C184.881 77.4316 183.546 80.8164 180.36 82.2319C176.551 83.9237 172.389 81.6776 170.231 76.8198C168.643 73.2444 168.217 68.4085 169.94 65.6887L170.087 65.3908L175.099 67.3521L174.611 68.0342C173.493 69.6013 173.419 72.4725 174.437 74.7654C175.318 76.7474 176.971 78.0604 178.642 77.3181C180.507 76.4894 179.662 74.1663 179.217 73.0609L178.928 72.3053L177.927 70.0512C176.166 66.0872 176.383 62.5942 179.764 61.0924Z" fill="#2180D8"/>
<path d="M175.921 94.0305L205.77 93.5755L205.844 98.4227L188.75 98.6407L188.757 99.0659L197.974 106.666L198.067 112.789L187.807 103.716L176.23 114.312L176.144 108.657L184.53 100.789L182.118 98.7843L175.995 98.8777L175.921 94.0305Z" fill="#2180D8"/>
<path d="M193.079 133.761L172.464 127.446L173.872 122.852L194.486 129.167L193.079 133.761ZM198.558 130.103L204.454 131.909L202.847 137.154L196.951 135.348L198.558 130.103Z" fill="#2180D8"/>
<path d="M191.342 157.453L165.458 142.411L167.893 138.22L193.777 153.261L191.342 157.453Z" fill="#2180D8"/>
<path d="M176.687 176.153L155.04 155.474L158.389 151.969L180.036 172.648L176.687 176.153Z" fill="#2180D8"/>
<path d="M154.28 176.315C156.277 180.069 153.871 184.239 149.365 186.635C145.573 188.652 141.599 188.695 138.651 187.228L138.324 187.065L139.818 182.177C141.902 184.103 144.758 184.221 147.386 182.823C149.526 181.685 150.569 180.023 149.83 178.634C149.231 177.507 147.957 177.558 146.493 178.337L142.644 180.336C138.344 182.575 134.873 181.483 133.236 178.404C131.279 174.725 133.225 170.415 137.918 167.919C141.372 166.082 146.165 165.314 149 166.841L149.308 166.966L147.706 172.105L146.991 171.666C145.349 170.661 142.48 170.791 140.264 171.969C138.35 172.987 137.157 174.729 138.016 176.344C138.974 178.146 141.232 177.138 142.303 176.616L143.036 176.274L145.214 175.116C149.043 173.079 152.543 173.048 154.28 176.315Z" fill="#2180D8"/>
</svg>
